<svg width="26" height="26" viewBox="0 0 26 26" fill="none" xmlns="http://www.w3.org/2000/svg">
<path d="M12.8467 18.8608C13.1002 18.724 13.2583 18.464 13.2583 18.1811V13.7769H21.9545C22.3936 13.7769 22.75 13.4288 22.75 12.9999C22.75 12.5709 22.3936 12.2228 21.9545 12.2228H13.2583V7.81859C13.2583 7.53472 13.1002 7.27467 12.8467 7.13895C12.5932 7.00115 12.2835 7.01048 12.0385 7.1607L3.62123 12.342C3.39001 12.4849 3.25 12.7326 3.25 12.9999C3.25 13.2672 3.39001 13.5148 3.62123 13.6578L12.0385 18.839C12.1679 18.9178 12.3154 18.9582 12.4628 18.9582C12.5943 18.9582 12.7269 18.925 12.8467 18.8608Z" fill="#114393"/>
</svg>
