<svg width="22" height="22" viewBox="0 0 22 22" fill="none" xmlns="http://www.w3.org/2000/svg">
<path d="M8.50692 14.5054L12.9569 14.519C13.2344 14.52 13.459 14.7523 13.459 15.0372V17.5406C13.459 17.8265 13.2967 18.0851 13.0438 18.2047L9.00431 20.1014C8.90993 20.1452 8.80988 20.1666 8.70984 20.1666C8.57677 20.1666 8.44369 20.1277 8.3276 20.0509C8.12468 19.9167 8.00199 19.6853 8.00199 19.4374V15.0236C8.00199 14.7368 8.2285 14.5044 8.50692 14.5054ZM18.216 1.83325C19.2938 1.83325 20.1668 2.73255 20.1668 3.84282V5.2467C20.1668 5.7853 19.9564 6.30252 19.5826 6.67974L13.6197 12.7114C13.5168 12.8164 13.3771 12.8747 13.2327 12.8737L8.24002 12.8582C8.08807 12.8582 7.94366 12.793 7.83985 12.6793L2.36014 6.65252C2.02131 6.28016 1.8335 5.78822 1.8335 5.27781V3.84379C1.8335 2.73352 2.70651 1.83325 3.78433 1.83325H18.216Z" fill="#114393"/>
</svg>
