<svg width="11" height="11" viewBox="0 0 11 11" fill="none" xmlns="http://www.w3.org/2000/svg">
<path d="M3.79484 1.14607C4.08359 1.15485 4.36318 1.20527 4.63405 1.29739H4.66109C4.67943 1.3061 4.69318 1.31572 4.70234 1.32443C4.80364 1.35697 4.89943 1.39364 4.9911 1.44406L5.16526 1.52197C5.23401 1.55864 5.31651 1.62693 5.36235 1.65489C5.40818 1.68193 5.45859 1.70989 5.49984 1.74152C6.00905 1.35239 6.62735 1.14156 7.26443 1.14607C7.55364 1.14607 7.84239 1.18693 8.11693 1.27906C9.80864 1.82906 10.4182 3.68531 9.90901 5.30781C9.62026 6.13693 9.14818 6.89364 8.52989 7.51193C7.64485 8.36902 6.67364 9.12985 5.62818 9.78526L5.5136 9.85447L5.39443 9.78068C4.3453 9.12985 3.36859 8.36901 2.4753 7.50735C1.86114 6.88906 1.38859 6.13693 1.09526 5.30781C0.577345 3.68531 1.18693 1.82906 2.89697 1.26943C3.02989 1.2236 3.16693 1.19152 3.30443 1.17364H3.35943C3.48822 1.15485 3.6161 1.14607 3.74443 1.14607H3.79484ZM7.87859 2.59447C7.69068 2.52985 7.48443 2.63114 7.41568 2.82364C7.35151 3.01614 7.45234 3.22697 7.64485 3.29527C7.93864 3.40527 8.13526 3.69447 8.13526 4.01485V4.02906C8.12655 4.13402 8.15818 4.23531 8.22234 4.31322C8.28651 4.39114 8.38276 4.43651 8.4836 4.44614C8.67151 4.4411 8.83193 4.29031 8.84568 4.09735V4.04281C8.85943 3.40068 8.4703 2.81906 7.87859 2.59447Z" fill="#EB5757"/>
</svg>
