<svg width="17" height="17" viewBox="0 0 17 17" fill="none" xmlns="http://www.w3.org/2000/svg">
<path d="M11.8012 1.4165C14.2095 1.4165 15.5837 2.7765 15.5837 5.19192V11.8078C15.5837 14.209 14.2166 15.5832 11.8082 15.5832H5.19241C2.77699 15.5832 1.41699 14.209 1.41699 11.8078V5.19192C1.41699 2.7765 2.77699 1.4165 5.19241 1.4165H11.8012ZM8.49324 5.31942C8.16741 5.31942 7.90532 5.5815 7.90532 5.90734V7.90484H5.90074C5.74491 7.90484 5.59616 7.96859 5.48282 8.07484C5.37657 8.18817 5.31282 8.33621 5.31282 8.49275C5.31282 8.81859 5.57491 9.08067 5.90074 9.08775H7.90532V11.0923C7.90532 11.4182 8.16741 11.6803 8.49324 11.6803C8.81907 11.6803 9.08116 11.4182 9.08116 11.0923V9.08775H11.0928C11.4187 9.08067 11.6807 8.81859 11.6807 8.49275C11.6807 8.16692 11.4187 7.90484 11.0928 7.90484H9.08116V5.90734C9.08116 5.5815 8.81907 5.31942 8.49324 5.31942Z" fill="#114393"/>
</svg>
