<svg width="15" height="15" viewBox="0 0 15 15" fill="none" xmlns="http://www.w3.org/2000/svg">
<path d="M11.0129 11.0339C11.2545 10.794 11.6418 10.794 11.8833 11.0339L13.48 12.3228H13.5077C13.8308 12.6493 13.8308 13.1786 13.5077 13.5051C13.1847 13.8316 12.661 13.8316 12.338 13.5051L11.0129 11.9865L10.9627 11.9298C10.869 11.8113 10.8173 11.6634 10.8173 11.5102C10.8173 11.3315 10.8877 11.1601 11.0129 11.0339ZM6.61103 1.25C8.03286 1.25 9.39645 1.8209 10.4018 2.8371C11.4072 3.85331 11.9721 5.23157 11.9721 6.6687C11.9721 9.66137 9.57184 12.0874 6.61103 12.0874C3.65021 12.0874 1.25 9.66137 1.25 6.6687C1.25 3.67604 3.65021 1.25 6.61103 1.25Z" fill="#114393"/>
</svg>
