<svg width="10" height="10" viewBox="0 0 10 10" fill="none" xmlns="http://www.w3.org/2000/svg">
<path d="M7.46587 5.9665C7.35796 6.07109 7.30837 6.22234 7.33296 6.37067L7.70337 8.42067C7.73462 8.59442 7.66129 8.77025 7.51587 8.87067C7.37337 8.97484 7.18379 8.98734 7.02837 8.904L5.18296 7.9415C5.11879 7.90734 5.04754 7.889 4.97462 7.88692H4.86171C4.82254 7.89275 4.78421 7.90525 4.74921 7.92442L2.90337 8.8915C2.81212 8.93734 2.70879 8.95359 2.60754 8.93734C2.36087 8.89067 2.19629 8.65567 2.23671 8.40775L2.60754 6.35775C2.63212 6.20817 2.58254 6.05609 2.47462 5.94984L0.970039 4.4915C0.844206 4.36942 0.800456 4.18609 0.857956 4.02067C0.913789 3.85567 1.05629 3.73525 1.22837 3.70817L3.29921 3.40775C3.45671 3.3915 3.59504 3.29567 3.66587 3.154L4.57837 1.28317C4.60004 1.2415 4.62796 1.20317 4.66171 1.17067L4.69921 1.1415C4.71879 1.11984 4.74129 1.10192 4.76629 1.08734L4.81171 1.07067L4.88254 1.0415H5.05796C5.21462 1.05775 5.35254 1.1515 5.42462 1.2915L6.34921 3.154C6.41587 3.29025 6.54546 3.38484 6.69504 3.40775L8.76587 3.70817C8.94087 3.73317 9.08712 3.854 9.14504 4.02067C9.19962 4.18775 9.15254 4.37109 9.02421 4.4915L7.46587 5.9665Z" fill="#F2C94C"/>
</svg>
